<?xml version="1.0" encoding="UTF-8" standalone="no"?>
<svg width="210px" height="110px" viewBox="0 0 210 110" version="1.1" xmlns="http://www.w3.org/2000/svg" xmlns:xlink="http://www.w3.org/1999/xlink">
    <!-- Generator: Sketch 39.1 (31720) - http://www.bohemiancoding.com/sketch -->
    <title>Group 4</title>
    <desc>Created with Sketch.</desc>
    <defs>
        <rect id="path-1" x="0" y="0" width="93" height="110"></rect>
        <mask id="mask-2" maskContentUnits="userSpaceOnUse" maskUnits="objectBoundingBox" x="0" y="0" width="93" height="110" fill="white">
            <use xlink:href="#path-1"></use>
        </mask>
        <rect id="path-3" x="0" y="0" width="93" height="20"></rect>
        <mask id="mask-4" maskContentUnits="userSpaceOnUse" maskUnits="objectBoundingBox" x="0" y="0" width="93" height="20" fill="white">
            <use xlink:href="#path-3"></use>
        </mask>
        <rect id="path-5" x="0" y="0" width="93" height="110"></rect>
        <mask id="mask-6" maskContentUnits="userSpaceOnUse" maskUnits="objectBoundingBox" x="0" y="0" width="93" height="110" fill="white">
            <use xlink:href="#path-5"></use>
        </mask>
        <rect id="path-7" x="0" y="0" width="93" height="20"></rect>
        <mask id="mask-8" maskContentUnits="userSpaceOnUse" maskUnits="objectBoundingBox" x="0" y="0" width="93" height="20" fill="white">
            <use xlink:href="#path-7"></use>
        </mask>
    </defs>
    <g id="Page-1" stroke="none" stroke-width="1" fill="none" fill-rule="evenodd">
        <g id="Features" transform="translate(-350.000000, -386.000000)">
            <g id="Group-4" transform="translate(350.000000, 386.000000)">
                <g id="Group">
                    <use id="Rectangle" stroke="#979797" mask="url(#mask-2)" stroke-width="2" fill="#FFFFFF" xlink:href="#path-1"></use>
                    <circle id="Oval-2-Copy-4" fill="#50E38F" cx="21.5" cy="94.5" r="2.5"></circle>
                    <circle id="Oval-2-Copy-5" fill="#9012FE" cx="21.5" cy="74.5" r="2.5"></circle>
                    <circle id="Oval-2-Copy" fill="#AAAAAA" cx="21.5" cy="54.5" r="2.5"></circle>
                    <circle id="Oval-2" fill="#00BCFF" cx="21.5" cy="34.5" r="2.5"></circle>
                    <circle id="Oval-2-Copy-3" fill="#FF001F" cx="56.5" cy="34.5" r="2.5"></circle>
                    <circle id="Oval-2-Copy-2" fill="#F6A623" cx="56.5" cy="94.5" r="2.5"></circle>
                    <path d="M27.5,94.5 L38.5,94.5" id="Line" stroke="#979797" stroke-linecap="square"></path>
                    <path d="M27.5,74.5 L38.5,74.5" id="Line-Copy-6" stroke="#979797" stroke-linecap="square"></path>
                    <path d="M27.5,54.5 L38.5,54.5" id="Line-Copy-7" stroke="#979797" stroke-linecap="square"></path>
                    <path d="M27.5,34.5 L38.5,34.5" id="Line-Copy-3" stroke="#979797" stroke-linecap="square"></path>
                    <path d="M63.5,94.5 L74.5,94.5" id="Line-Copy-5" stroke="#979797" stroke-linecap="square"></path>
                    <circle id="Oval-2-Copy-6" fill="#F74A37" cx="56.5" cy="74.5" r="2.5"></circle>
                    <path d="M63.5,74.5 L74.5,74.5" id="Line-Copy-8" stroke="#979797" stroke-linecap="square"></path>
                    <circle id="Oval-2-Copy-7" fill="#E350CE" cx="56.5" cy="54.5" r="2.5"></circle>
                    <path d="M63.5,54.5 L74.5,54.5" id="Line-Copy-9" stroke="#979797" stroke-linecap="square"></path>
                    <path d="M63.5,34.5 L74.5,34.5" id="Line-Copy-4" stroke="#979797" stroke-linecap="square"></path>
                    <use id="Rectangle-Copy" stroke="#979797" mask="url(#mask-4)" stroke-width="2" fill="#00BCFF" xlink:href="#path-3"></use>
                </g>
                <g id="Group-Copy" transform="translate(117.000000, 0.000000)">
                    <use id="Rectangle" stroke="#979797" mask="url(#mask-6)" stroke-width="2" fill="#FFFFFF" xlink:href="#path-5"></use>
                    <circle id="Oval-2-Copy-4" fill="#50E38F" cx="21.5" cy="94.5" r="2.5"></circle>
                    <circle id="Oval-2-Copy-5" fill="#9012FE" cx="21.5" cy="74.5" r="2.5"></circle>
                    <circle id="Oval-2-Copy" fill="#AAAAAA" cx="21.5" cy="54.5" r="2.5"></circle>
                    <circle id="Oval-2" fill="#00BCFF" cx="21.5" cy="34.5" r="2.5"></circle>
                    <circle id="Oval-2-Copy-3" fill="#FF001F" cx="56.5" cy="34.5" r="2.5"></circle>
                    <circle id="Oval-2-Copy-2" fill="#F6A623" cx="56.5" cy="94.5" r="2.5"></circle>
                    <path d="M27.5,94.5 L38.5,94.5" id="Line" stroke="#979797" stroke-linecap="square"></path>
                    <path d="M27.5,74.5 L38.5,74.5" id="Line-Copy-6" stroke="#979797" stroke-linecap="square"></path>
                    <path d="M27.5,54.5 L38.5,54.5" id="Line-Copy-7" stroke="#979797" stroke-linecap="square"></path>
                    <path d="M27.5,34.5 L38.5,34.5" id="Line-Copy-3" stroke="#979797" stroke-linecap="square"></path>
                    <path d="M63.5,94.5 L74.5,94.5" id="Line-Copy-5" stroke="#979797" stroke-linecap="square"></path>
                    <circle id="Oval-2-Copy-6" fill="#F74A37" cx="56.5" cy="74.5" r="2.5"></circle>
                    <path d="M63.5,74.5 L74.5,74.5" id="Line-Copy-8" stroke="#979797" stroke-linecap="square"></path>
                    <circle id="Oval-2-Copy-7" fill="#E350CE" cx="56.5" cy="54.5" r="2.5"></circle>
                    <path d="M63.5,54.5 L74.5,54.5" id="Line-Copy-9" stroke="#979797" stroke-linecap="square"></path>
                    <path d="M63.5,34.5 L74.5,34.5" id="Line-Copy-4" stroke="#979797" stroke-linecap="square"></path>
                    <use id="Rectangle-Copy" stroke="#979797" mask="url(#mask-8)" stroke-width="2" fill="#00BCFF" xlink:href="#path-7"></use>
                </g>
            </g>
        </g>
    </g>
</svg>