<?xml version="1.0" standalone="no"?>
<!DOCTYPE svg PUBLIC "-//W3C//DTD SVG 20010904//EN"
 "http://www.w3.org/TR/2001/REC-SVG-20010904/DTD/svg10.dtd">
<svg version="1.0" xmlns="http://www.w3.org/2000/svg"
 width="16.000000pt" height="16.000000pt" viewBox="0 0 16.000000 16.000000"
 preserveAspectRatio="xMidYMid meet">
<metadata>
Created by potrace 1.11, written by Peter Selinger 2001-2013
</metadata>
<g transform="translate(0.000000,16.000000) scale(0.000640,-0.000640)"
fill="#000000" stroke="none">
<path d="M7420 19370 l0 -640 -440 0 -440 0 0 -120 0 -120 440 0 440 0 1
-1432 c0 -1606 9 -2233 33 -2373 35 -205 109 -391 201 -507 117 -148 295 -236
543 -269 157 -21 619 3 670 35 9 5 -20 202 -31 212 -2 3 -47 -1 -98 -8 -52 -6
-200 -12 -329 -12 l-235 -1 -80 31 c-139 53 -218 115 -283 217 -73 116 -121
261 -143 432 -9 64 -13 600 -16 1883 l-4 1792 546 0 545 0 0 120 0 120 -545 0
-545 0 0 640 0 640 -115 0 -115 0 0 -640z"/>
<path d="M15020 19370 l0 -640 -440 0 -440 0 0 -120 0 -120 440 0 440 0 1
-1432 c0 -1606 9 -2233 33 -2373 35 -205 109 -391 201 -507 117 -148 295 -236
543 -269 157 -21 619 3 670 35 9 5 -20 202 -31 212 -2 3 -47 -1 -98 -8 -52 -6
-200 -12 -329 -12 l-235 -1 -80 31 c-139 53 -218 115 -283 217 -73 116 -121
261 -143 432 -9 64 -13 600 -16 1883 l-4 1792 546 0 545 0 0 120 0 120 -545 0
-545 0 0 640 0 640 -115 0 -115 0 0 -640z"/>
<path d="M3775 18790 c-436 -66 -723 -201 -961 -452 -124 -131 -211 -281 -256
-445 -19 -68 -22 -104 -22 -278 -1 -220 8 -273 74 -443 120 -311 398 -520 920
-693 166 -55 262 -80 690 -183 511 -123 855 -284 1080 -505 182 -179 265 -360
277 -601 12 -242 -61 -436 -233 -619 -224 -238 -533 -382 -924 -431 -108 -13
-433 -13 -575 0 -271 26 -534 105 -728 219 -285 167 -450 400 -505 714 l-18
102 -113 3 -114 3 7 -83 c4 -46 14 -113 21 -149 110 -525 618 -919 1320 -1024
148 -22 557 -31 707 -16 434 45 790 192 1040 429 110 105 166 176 223 285 92
174 120 321 112 585 -4 148 -9 193 -31 276 -88 337 -337 592 -756 776 -162 71
-462 166 -790 250 -382 98 -488 129 -650 187 -458 165 -714 376 -784 647 -114
438 49 810 457 1048 213 125 505 188 862 188 356 0 632 -61 874 -193 233 -127
444 -351 523 -554 38 -97 68 -232 68 -305 l0 -58 114 0 c86 0 115 3 119 13 3
8 1 52 -4 98 -38 344 -129 543 -353 764 -61 61 -145 134 -186 162 -235 159
-560 266 -894 293 -196 15 -451 11 -591 -10z"/>
<path d="M11235 18799 c-297 -31 -612 -144 -858 -308 -123 -83 -302 -250 -385
-360 -133 -177 -210 -383 -231 -623 l-7 -77 114 -3 c129 -3 117 -14 126 105
38 485 510 906 1146 1022 146 27 500 32 671 10 328 -42 564 -135 761 -301 205
-172 342 -435 378 -724 5 -46 10 -270 10 -497 l0 -413 -137 -1 c-627 -2 -1381
-19 -1493 -33 -576 -71 -1019 -254 -1321 -543 -119 -114 -183 -198 -243 -313
-97 -189 -126 -316 -126 -559 0 -258 36 -422 132 -601 118 -221 332 -419 579
-534 225 -105 435 -146 744 -146 391 0 740 76 1053 230 295 145 537 344 715
587 106 145 94 145 101 3 17 -319 40 -529 72 -669 l16 -73 124 4 c70 2 128 8
134 14 7 7 6 20 -4 45 -25 60 -54 188 -76 334 -30 203 -38 533 -45 1960 -7
1388 -3 1312 -81 1536 -69 199 -160 346 -304 489 -248 248 -596 397 -1029 440
-119 12 -419 11 -536 -1z m1725 -2974 l0 -565 -49 -99 c-293 -584 -855 -951
-1565 -1022 -154 -15 -464 -6 -566 16 -390 87 -688 307 -836 618 -62 132 -77
211 -77 397 0 193 15 267 87 415 208 425 753 718 1456 784 63 6 131 13 150 14
19 2 342 5 718 5 l682 2 0 -565z"/>
<path d="M18695 18790 c-436 -66 -723 -201 -961 -452 -124 -131 -211 -281
-256 -445 -19 -68 -22 -104 -22 -278 -1 -220 8 -273 74 -443 120 -311 398
-520 920 -693 166 -55 262 -80 690 -183 511 -123 855 -284 1080 -505 182 -179
265 -360 277 -601 12 -242 -61 -436 -233 -619 -224 -238 -533 -382 -924 -431
-108 -13 -433 -13 -575 0 -271 26 -534 105 -728 219 -285 167 -450 400 -505
714 l-18 102 -113 3 -114 3 7 -83 c4 -46 14 -113 21 -149 110 -525 618 -919
1320 -1024 148 -22 557 -31 707 -16 434 45 790 192 1040 429 110 105 166 176
223 285 92 174 120 321 112 585 -4 148 -9 193 -31 276 -88 337 -337 592 -756
776 -162 71 -462 166 -790 250 -382 98 -488 129 -650 187 -458 165 -714 376
-784 647 -114 438 49 810 457 1048 213 125 505 188 862 188 356 0 632 -61 874
-193 233 -127 444 -351 523 -554 38 -97 68 -232 68 -305 l0 -58 114 0 c86 0
115 3 119 13 3 8 1 52 -4 98 -38 344 -129 543 -353 764 -61 61 -145 134 -186
162 -235 159 -560 266 -894 293 -196 15 -451 11 -591 -10z"/>
<path d="M7130 8085 l0 -3375 115 0 115 0 2 1543 3 1542 34 110 c204 667 634
1161 1161 1334 144 47 229 61 416 68 714 25 1123 -250 1279 -862 72 -281 68
-182 72 -2052 l4 -1683 116 0 116 0 -7 1633 c-4 897 -11 1697 -17 1777 -5 84
-22 205 -38 286 -72 348 -195 590 -400 786 -225 215 -507 322 -914 347 -400
24 -754 -66 -1076 -275 -291 -189 -498 -426 -682 -778 l-69 -131 0 1553 0
1552 -115 0 -115 0 0 -3375z"/>
<path d="M3945 9540 c-462 -27 -851 -185 -1117 -453 -180 -182 -273 -382 -299
-642 -37 -377 113 -739 391 -945 244 -181 560 -299 1215 -454 361 -85 535
-143 760 -251 287 -138 489 -318 594 -530 68 -137 85 -215 85 -390 0 -141 -2
-156 -31 -242 -56 -167 -144 -293 -301 -428 -187 -162 -426 -267 -732 -321
-86 -16 -155 -19 -380 -19 -299 0 -390 9 -580 55 -150 37 -243 71 -364 133
-245 125 -426 315 -517 542 -31 79 -69 234 -69 288 l0 27 -115 0 -115 0 0 -39
c0 -127 48 -317 112 -450 161 -328 534 -599 988 -717 189 -49 320 -65 582 -71
276 -6 430 4 611 42 491 102 862 353 1033 700 66 136 92 233 104 394 34 477
-122 813 -492 1061 -244 163 -519 266 -1123 420 -717 183 -1006 308 -1226 530
-92 92 -158 216 -185 345 -26 124 -24 339 4 438 82 288 329 528 667 650 94 33
277 73 397 86 125 14 402 14 526 0 362 -40 661 -171 889 -392 192 -185 295
-397 310 -634 l6 -83 119 0 120 0 -7 68 c-37 393 -132 603 -379 839 -298 285
-690 426 -1241 446 -60 2 -168 1 -240 -3z"/>
<path d="M13610 9540 c-314 -21 -619 -115 -875 -270 -242 -146 -466 -359 -624
-594 -216 -320 -365 -753 -402 -1166 -16 -181 -16 -724 0 -870 53 -490 235
-953 509 -1291 86 -107 271 -282 383 -362 119 -85 370 -212 514 -259 206 -69
405 -98 660 -98 351 0 605 57 894 201 227 113 376 223 546 401 355 372 566
889 616 1503 13 170 7 714 -11 840 -85 619 -345 1146 -733 1486 -394 345 -920
516 -1477 479z m393 -245 c366 -48 679 -198 949 -454 341 -323 563 -785 640
-1331 21 -149 17 -721 -5 -875 -47 -320 -117 -551 -239 -787 -97 -190 -192
-321 -348 -481 -319 -329 -682 -487 -1155 -504 -481 -17 -884 122 -1231 425
-347 304 -594 800 -669 1342 -22 161 -30 521 -16 714 26 351 96 632 225 901
294 613 783 985 1386 1054 122 14 341 12 463 -4z"/>
<path d="M16639 9454 c-14 -4 -9 -32 41 -202 32 -108 340 -1171 685 -2362 346
-1191 629 -2166 630 -2167 2 -6 235 -15 235 -9 0 3 137 428 304 944 636 1960
859 2662 998 3145 50 174 94 317 97 317 4 0 47 -150 95 -332 141 -527 152
-564 829 -2623 l473 -1440 119 0 119 0 102 350 c56 193 366 1255 688 2361 322
1106 586 2014 586 2017 0 4 -60 7 -132 7 l-133 0 -339 -1188 c-441 -1543 -670
-2360 -791 -2817 -54 -203 -101 -374 -106 -379 -9 -11 27 -124 -734 2299 -357
1133 -651 2063 -654 2067 -3 4 -58 10 -121 14 l-115 6 -73 -233 c-253 -808
-1312 -4141 -1320 -4154 -7 -11 -2 -29 -108 379 -145 563 -362 1330 -1068
3786 l-62 215 -114 1 c-63 1 -122 0 -131 -2z"/>
</g>
</svg>
